<svg xmlns="http://www.w3.org/2000/svg" viewBox="0 125 1440 195.49"><path fill="#ffffff" fill-opacity="1" d="M0,128L34.3,138.7C68.6,149,137,171,206,170.7C274.3,171,343,149,411,160C480,171,549,213,617,218.7C685.7,224,754,192,823,170.7C891.4,149,960,139,1029,149.3C1097.1,160,1166,192,1234,192C1302.9,192,1371,160,1406,144L1440,128L1440,320L1405.7,320C1371.4,320,1303,320,1234,320C1165.7,320,1097,320,1029,320C960,320,891,320,823,320C754.3,320,686,320,617,320C548.6,320,480,320,411,320C342.9,320,274,320,206,320C137.1,320,69,320,34,320L0,320Z"></path></svg>